<?xml version="1.0" encoding="UTF-8"?>
<svg xmlns="http://www.w3.org/2000/svg" xmlns:xlink="http://www.w3.org/1999/xlink" version="1.1" viewBox="0 0 110.8 112.9">
  <defs>
    <style>
      .cls-1 {
        fill: url(#linear-gradient-2);
      }

      .cls-2 {
        fill: url(#linear-gradient);
      }

      .cls-3 {
        fill: #96384c;
      }
    </style>
    <linearGradient id="linear-gradient" x1="55.8" y1="22.6" x2="133.1" y2="99.9" gradientTransform="translate(0 114) scale(1 -1)" gradientUnits="userSpaceOnUse">
      <stop offset=".2" stop-color="#ae4558"/>
      <stop offset=".6" stop-color="#ff5f6d"/>
      <stop offset="1" stop-color="#ffc371"/>
    </linearGradient>
    <linearGradient id="linear-gradient-2" x1="71.5" y1="6.2" x2="-41.3" y2="119" gradientTransform="translate(0 114) scale(1 -1)" gradientUnits="userSpaceOnUse">
      <stop offset="0" stop-color="#dd4558"/>
      <stop offset=".2" stop-color="#ff5f6d"/>
      <stop offset="1" stop-color="#ffc371"/>
    </linearGradient>
  </defs>
  <!-- Generator: Adobe Illustrator 28.7.2, SVG Export Plug-In . SVG Version: 1.2.0 Build 154)  -->
  <g>
    <g id="Layer_1">
      <g>
        <path class="cls-2" d="M90.9,88.8l11.9-6.2c.6-.3,1-1,1-1.7V7.2c0-.8-1-1.3-1.6-.7l-45.9,45.9,23.3,25.1"/>
        <path class="cls-1" d="M90.9,88.8L8.6,6.5c-.6-.6-1.6-.2-1.6.7v73.9c0,.7.4,1.3,1,1.7l45.2,23.5c1.3.7,2.9.7,4.3,0"/>
      </g>
      <polygon class="cls-3" points="56.3 52.4 79.8 77.7 55.4 53.3 56.3 52.4"/>
    </g>
  </g>
</svg>