<?xml version="1.0" encoding="UTF-8"?>
<svg id="Layer_2" xmlns="http://www.w3.org/2000/svg" xmlns:xlink="http://www.w3.org/1999/xlink" version="1.1" viewBox="0 0 1382.2 212.2">
  <!-- Generator: Adobe Illustrator 29.1.0, SVG Export Plug-In . SVG Version: 2.1.0 Build 142)  -->
  <defs>
    <style>
      .st0 {
        fill: url(#linear-gradient1);
      }

      .st1 {
        fill: #f6f6f6;
      }

      .st2 {
        fill: url(#linear-gradient);
      }

      .st3 {
        fill: #a22f4b;
      }
    </style>
    <linearGradient id="linear-gradient" x1="102.9" y1="1045.7" x2="266.2" y2="882.3" gradientTransform="translate(0 -865.8)" gradientUnits="userSpaceOnUse">
      <stop offset=".2" stop-color="#bb3b57"/>
      <stop offset=".6" stop-color="#ff4f68"/>
      <stop offset="1" stop-color="#ffbf61"/>
    </linearGradient>
    <linearGradient id="linear-gradient1" x1="136" y1="1080.3" x2="-102.2" y2="842.1" gradientTransform="translate(0 -865.8)" gradientUnits="userSpaceOnUse">
      <stop offset="0" stop-color="#ef3254"/>
      <stop offset=".2" stop-color="#ff4f68"/>
      <stop offset="1" stop-color="#ffbf61"/>
    </linearGradient>
  </defs>
  <g id="Layer_1-2">
    <g>
      <g>
        <path class="st2" d="M177.2,174.4l25-13c1.2-.7,2.1-2,2.1-3.5V2c0-1.8-2.1-2.6-3.3-1.4l-96.8,96.8,49.2,53.1"/>
        <path class="st0" d="M177.2,174.4L3.3.6C2.1-.7,0,.2,0,2v155.9c0,1.5.8,2.8,2.1,3.5l95.6,49.6c2.8,1.5,6.2,1.5,9,0"/>
        <path class="st3" d="M104.2,97.4l49.6,53.5-51.7-51.6s2.1-1.9,2.1-1.9Z"/>
      </g>
      <path class="st1" d="M340.1,186c-9.9,0-18.5-1.4-25.6-4.2-7-2.8-12.7-6.8-17.2-12.1s-7.8-11.6-10-19.1c-2-7.4-3-15.8-3-25.2V23l2.3-2.3h18.6l2.3,2.3v102.5c0,5.9.5,11.3,1.4,16.1,1.1,4.8,2.9,9,5.4,12.6,2.5,3.4,5.8,6.1,10,8.1,4.2,1.9,9.5,2.8,15.8,2.8h2.3c6.4,0,11.6-.9,15.8-2.8,4.2-2,7.5-4.7,10-8.1,2.5-3.6,4.2-7.8,5.1-12.6,1.1-4.8,1.6-10.2,1.6-16.1V23l2.3-2.3h18.6l2.3,2.3v102.5c0,9.3-1.1,17.7-3.3,25.1-2,7.4-5.3,13.8-9.8,19.1s-10.3,9.3-17.5,12.1c-7,2.8-15.5,4.2-25.4,4.2h-2.3ZM542.8,183.7h-107.1l-2.3-2.3V23l2.3-2.3h18.6l2.3,2.3v137.4l2.3,2.3h83.8l2.3,2.3v16.3l-2.3,2.3h0ZM669.3,41.7h-46.6l-2.3,2.3v137.4l-2.3,2.3h-18.6l-2.3-2.3V44l-2.3-2.3h-46.6l-2.3-2.3v-16.3l2.3-2.3h121.1l2.3,2.3v16.3l-2.3,2.3h0ZM790.4,67.3c0-9.3-2.4-15.9-7.2-19.8s-12.5-5.8-23-5.8h-37.3l-2.3,2.3v46.6l2.3,2.3h37.3c10.6,0,18.2-1.9,23-5.8s7.2-10.5,7.2-19.8h0ZM813.7,67.3c0,12.9-3.2,22.9-9.5,30s-14.8,11.9-25.4,14.2v2.3l32.6,51.2v16.3l-2.3,2.3h-9.3l-4.7-2.3-41.9-65.2-4.7-2.3h-25.6l-2.3,2.3v65.2l-2.3,2.3h-18.6l-2.3-2.3V23l2.3-2.3h60.5c16.3,0,29.3,3.7,38.9,11.2,9.8,7.3,14.7,19.1,14.7,35.4ZM930.2,153.4l-4.7-2.3h-62.9l-4.7,2.3-9.3,27.9-2.3,2.3h-14l-2.3-2.3v-16.3l51.2-142,2.3-2.3h21l2.3,2.3,51.2,142v16.3l-2.3,2.3h-14l-2.3-2.3-9.3-27.9h0ZM867.3,127.8l2.3,2.3h48.9l2.3-2.3-25.6-72.2h-2.3l-25.6,72.2h0ZM1049.1,181.4l-2.3,2.3h-21l-2.3-2.3-51.2-142v-16.3l2.3-2.3h14l2.3,2.3,44.2,128.1h2.3l44.2-128.1,2.3-2.3h14l2.3,2.3v16.3l-51.2,142h0ZM1177.2,186c-19.9,0-34.9-6.9-45.2-20.7-10.2-14-15.4-35-15.4-63.1s5.1-49.1,15.4-62.9c10.2-14,25.3-21,45.2-21h2.3c19.9,0,34.9,7,45.2,21,10.2,13.8,15.4,34.8,15.4,62.9s-5.1,49.1-15.4,63.1c-10.2,13.8-25.3,20.7-45.2,20.7h-2.3ZM1179.5,165.1c12.9,0,22.3-5.2,28.2-15.6,6.1-10.4,9.1-26.2,9.1-47.3s-3-36.9-9.1-47.3c-5.9-10.4-15.3-15.6-28.2-15.6h-2.3c-12.9,0-22.3,5.2-28.4,15.6-5.9,10.4-8.8,26.2-8.8,47.3s2.9,36.9,8.8,47.3c6.1,10.4,15.5,15.6,28.4,15.6h2.3ZM1379.9,183.7h-9.3l-4.7-2.3-44.2-65.2h-2.3l-44.2,65.2-4.7,2.3h-9.3l-2.3-2.3v-16.3l46.6-65.2v-2.3l-44.2-58.2v-16.3l2.3-2.3h9.3l4.7,2.3,41.9,58.2h2.3l41.9-58.2,4.7-2.3h9.3l2.3,2.3v16.3l-44.2,58.2v2.3l46.6,65.2v16.3l-2.3,2.3Z"/>
    </g>
  </g>
</svg>