<?xml version="1.0" encoding="UTF-8"?>
<svg id="Layer_2" data-name="Layer 2" xmlns="http://www.w3.org/2000/svg" xmlns:xlink="http://www.w3.org/1999/xlink" viewBox="0 0 1382.21 212.16">
  <defs>
    <style>
      .cls-1 {
        fill: url(#linear-gradient-2);
      }

      .cls-2 {
        fill: url(#linear-gradient);
      }

      .cls-3 {
        fill: #a22f4b;
      }

      .cls-4 {
        fill: #121212;
      }
    </style>
    <linearGradient id="linear-gradient" x1="102.89" y1="34.35" x2="266.19" y2="197.73" gradientTransform="translate(0 214.16) scale(1 -1)" gradientUnits="userSpaceOnUse">
      <stop offset=".19" stop-color="#bb3b57"/>
      <stop offset=".55" stop-color="#ff4f68"/>
      <stop offset="1" stop-color="#ffbf61"/>
    </linearGradient>
    <linearGradient id="linear-gradient-2" x1="136.04" y1="-.3" x2="-102.17" y2="237.91" gradientTransform="translate(0 214.16) scale(1 -1)" gradientUnits="userSpaceOnUse">
      <stop offset=".1" stop-color="#ef3254"/>
      <stop offset=".25" stop-color="#ff4f68"/>
      <stop offset="1" stop-color="#ffbf61"/>
    </linearGradient>
  </defs>
  <g id="Layer_1-2" data-name="Layer 1">
    <g>
      <g>
        <path class="cls-2" d="M177.17,174.41l25-12.96c1.25-.67,2.09-2.01,2.09-3.51V2c0-1.76-2.09-2.59-3.34-1.42l-96.82,96.82,49.16,53.09"/>
        <path class="cls-1" d="M177.17,174.41L3.34.58C2.09-.67,0,.25,0,2v155.94c0,1.51.84,2.84,2.09,3.51l95.57,49.58c2.84,1.51,6.19,1.51,9.03,0"/>
        <path class="cls-3" d="M104.18,97.4l49.58,53.51-51.67-51.59,2.09-1.92Z"/>
      </g>
      <path class="cls-4" d="M340.15,186.04c-9.93,0-18.47-1.4-25.61-4.19-6.99-2.79-12.73-6.83-17.23-12.11-4.5-5.28-7.84-11.64-10.01-19.09-2.02-7.45-3.03-15.83-3.03-25.15V23.04l2.33-2.33h18.63l2.33,2.33v102.46c0,5.9.47,11.26,1.4,16.07,1.09,4.81,2.87,9,5.36,12.57,2.48,3.41,5.82,6.13,10.01,8.15,4.19,1.86,9.47,2.79,15.83,2.79h2.33c6.37,0,11.64-.93,15.83-2.79,4.19-2.02,7.53-4.74,10.01-8.15,2.48-3.57,4.19-7.76,5.12-12.57,1.09-4.81,1.63-10.17,1.63-16.07V23.04l2.33-2.33h18.63l2.33,2.33v102.46c0,9.31-1.09,17.7-3.26,25.15-2.02,7.45-5.28,13.82-9.78,19.09s-10.32,9.31-17.46,12.11c-6.99,2.79-15.45,4.19-25.38,4.19h-2.33ZM542.81,183.71h-107.11l-2.33-2.33V23.04l2.33-2.33h18.63l2.33,2.33v137.39l2.33,2.33h83.83l2.33,2.33v16.3l-2.33,2.33ZM669.26,41.67h-46.57l-2.33,2.33v137.39l-2.33,2.33h-18.63l-2.33-2.33V44l-2.33-2.33h-46.57l-2.33-2.33v-16.3l2.33-2.33h121.09l2.33,2.33v16.3l-2.33,2.33ZM790.43,67.28c0-9.31-2.41-15.91-7.22-19.79-4.81-3.88-12.5-5.82-23.05-5.82h-37.26l-2.33,2.33v46.57l2.33,2.33h37.26c10.56,0,18.24-1.94,23.05-5.82,4.81-3.88,7.22-10.48,7.22-19.79ZM813.71,67.28c0,12.88-3.18,22.9-9.55,30.04-6.37,7.14-14.83,11.88-25.38,14.2v2.33l32.6,51.23v16.3l-2.33,2.33h-9.31l-4.66-2.33-41.91-65.2-4.66-2.33h-25.61l-2.33,2.33v65.2l-2.33,2.33h-18.63l-2.33-2.33V23.04l2.33-2.33h60.54c16.3,0,29.26,3.73,38.89,11.18,9.78,7.3,14.67,19.09,14.67,35.39ZM930.22,153.44l-4.66-2.33h-62.87l-4.66,2.33-9.31,27.94-2.33,2.33h-13.97l-2.33-2.33v-16.3l51.23-142.04,2.33-2.33h20.96l2.33,2.33,51.23,142.04v16.3l-2.33,2.33h-13.97l-2.33-2.33-9.31-27.94ZM867.35,127.83l2.33,2.33h48.9l2.33-2.33-25.61-72.19h-2.33l-25.61,72.19ZM1049.06,181.38l-2.33,2.33h-20.96l-2.33-2.33-51.23-142.04v-16.3l2.33-2.33h13.97l2.33,2.33,44.24,128.07h2.33l44.24-128.07,2.33-2.33h13.97l2.33,2.33v16.3l-51.23,142.04ZM1177.21,186.04c-19.87,0-34.93-6.91-45.17-20.72-10.25-13.97-15.37-35.01-15.37-63.1s5.12-49.06,15.37-62.87c10.25-13.97,25.3-20.96,45.17-20.96h2.33c19.87,0,34.93,6.99,45.17,20.96,10.25,13.82,15.37,34.77,15.37,62.87s-5.12,49.13-15.37,63.1c-10.25,13.82-25.3,20.72-45.17,20.72h-2.33ZM1179.54,165.08c12.89,0,22.28-5.2,28.18-15.6,6.05-10.4,9.08-26.16,9.08-47.27s-3.03-36.87-9.08-47.27c-5.9-10.4-15.29-15.6-28.18-15.6h-2.33c-12.88,0-22.35,5.2-28.41,15.6-5.9,10.4-8.85,26.16-8.85,47.27s2.95,36.87,8.85,47.27c6.05,10.4,15.52,15.6,28.41,15.6h2.33ZM1379.88,183.71h-9.31l-4.66-2.33-44.24-65.2h-2.33l-44.24,65.2-4.66,2.33h-9.31l-2.33-2.33v-16.3l46.57-65.2v-2.33l-44.24-58.21v-16.3l2.33-2.33h9.31l4.66,2.33,41.91,58.21h2.33l41.91-58.21,4.66-2.33h9.31l2.33,2.33v16.3l-44.24,58.21v2.33l46.57,65.2v16.3l-2.33,2.33Z"/>
    </g>
  </g>
</svg>